<?xml version="1.0" encoding="utf-8"?>
<!-- Generator: Adobe Illustrator 19.2.1, SVG Export Plug-In . SVG Version: 6.00 Build 0)  -->
<svg version="1.1" id="Layer_1" xmlns="http://www.w3.org/2000/svg" xmlns:xlink="http://www.w3.org/1999/xlink" x="0px" y="0px"
	 viewBox="0 0 140.9 44.9" style="enable-background:new 0 0 140.9 44.9;" xml:space="preserve">
<style type="text/css">
	.st0{fill:#EF3E33;}
</style>
<g>
	<path class="st0" d="M95.2,0v45.7h45.7V0H95.2z M133.3,12.4h-2c-0.1,0.9-0.5,9.1-6.9,14.7c1.4,1.6,3.7,3.2,5.5,4.5
		c1.1,0.8,2.2,1.5,3.3,2.2l0.1,0.8l-4.8,4.4c-2.2-2.6-4.2-5.1-6.2-7.5c-3.4-4.1-7.3-8.9-9.3-11.7c-2.9,0.2-3,1.9-2.6,3.9
		c0.6,3.1,3.7,7.4,5.3,10.1c0,0.4-0.2,1.2-0.5,1.9c-0.1,0.4-0.3,0.8-0.5,1.3H108c-1.3,0-1.9,0.8-2.1,1.3l-2.9-0.8l0.8-3.3
		c0,0,0.1-0.1,0.3-0.2c0.3-0.1,0.8-0.2,1.7-0.2h2.1l0.1-0.5c-1-2.1-2.5-5.8-2.7-7.7c-0.4-4.4,1.9-7.2,5.4-8
		c-1.3-1.3-3.2-2.9-4.7-4.3c-0.9-0.8-1.8-1.6-2.8-2.3c0.5-0.8,1.1-1.5,1.7-2.2c1.1-1.1,2.4-2.2,4-2.2c1.1,2.1,7.2,11.8,12.8,17.7
		c3.3-3.2,2.4-8.3,1.9-12.2l-3.8-0.8V7.3l4.1-0.7c0.6,1.5,1.8,3,3.6,3h5.8l0.6,0.5L133.3,12.4z M47.6,0v45.7h45.7V0H47.6z
		 M85.7,12.4h-2c-0.1,0.9-0.5,9.1-6.9,14.7c1.4,1.6,3.7,3.2,5.5,4.5c1.1,0.8,2.2,1.5,3.3,2.2l0.1,0.8L80.8,39
		c-2.2-2.6-4.2-5.1-6.2-7.5c-3.4-4.1-7.3-8.9-9.3-11.7c-2.9,0.2-3,1.9-2.6,3.9c0.6,3.1,3.7,7.4,5.3,10.1c0,0.4-0.2,1.2-0.5,1.9
		c-0.1,0.4-0.3,0.8-0.5,1.3h-6.4c-1.3,0-1.9,0.8-2.1,1.3l-2.9-0.8l0.8-3.3c0,0,0.1-0.1,0.3-0.2c0.3-0.1,0.8-0.2,1.7-0.2h2.1l0.1-0.5
		c-1-2.1-2.5-5.8-2.7-7.7c-0.4-4.4,1.9-7.2,5.4-8c-1.3-1.3-3.2-2.9-4.7-4.3c-0.9-0.8-1.8-1.6-2.8-2.3c0.5-0.8,1.1-1.5,1.7-2.2
		c1.1-1.1,2.4-2.2,4-2.2c1.1,2.1,7.2,11.8,12.8,17.7c3.3-3.2,2.4-8.3,1.9-12.2l-3.8-0.8V7.3l4.1-0.7c0.6,1.5,1.8,3,3.6,3h5.8
		l0.6,0.5L85.7,12.4z M0,0v45.7h45.7V0H0z M38.1,12.4h-2c-0.1,0.9-0.5,9.1-6.9,14.7c1.4,1.6,3.7,3.2,5.5,4.5
		c1.1,0.8,2.2,1.5,3.3,2.2l0.1,0.8L33.2,39C31,36.3,29,33.9,27,31.4c-3.4-4.1-7.3-8.9-9.3-11.7c-2.9,0.2-3,1.9-2.6,3.9
		c0.6,3.1,3.7,7.4,5.3,10.1c0,0.4-0.2,1.2-0.5,1.9c-0.1,0.4-0.3,0.8-0.5,1.3h-6.4c-1.3,0-1.9,0.8-2.1,1.3l-2.9-0.8l0.8-3.3
		c0,0,0.1-0.1,0.3-0.2c0.3-0.1,0.8-0.2,1.7-0.2h2.1l0.1-0.5c-1-2.1-2.5-5.8-2.7-7.7c-0.4-4.4,1.9-7.2,5.4-8
		c-1.3-1.3-3.2-2.9-4.7-4.3c-0.9-0.8-1.8-1.6-2.8-2.3c0.5-0.8,1.1-1.5,1.7-2.2c1.1-1.1,2.4-2.2,4-2.2c1.1,2.1,7.2,11.8,12.8,17.7
		C29.9,21,29,15.9,28.5,12l-3.8-0.8V7.3l4.1-0.7c0.6,1.5,1.8,3,3.6,3h5.8l0.6,0.5L38.1,12.4z"/>
</g>
</svg>
