<svg xmlns="http://www.w3.org/2000/svg" xmlns:xlink="http://www.w3.org/1999/xlink" viewBox="0 0 267.39 267.39"><defs><style>.cls-1{fill:#0d2d42;}.cls-2{fill:#ff2d42;}.cls-3{fill:url(#linear-gradient);}.cls-4{fill:url(#linear-gradient-2);}.cls-5{fill:url(#linear-gradient-3);}</style><linearGradient id="linear-gradient" x1="133.67" y1="83.54" x2="133.67" y2="267.07" gradientUnits="userSpaceOnUse"><stop offset="0" stop-color="#ff2d42" stop-opacity="0.67"/><stop offset="0.08" stop-color="#e92d42" stop-opacity="0.7"/><stop offset="0.52" stop-color="#732d42" stop-opacity="0.86"/><stop offset="0.84" stop-color="#292d42" stop-opacity="0.96"/><stop offset="1" stop-color="#0d2d42"/></linearGradient><linearGradient id="linear-gradient-2" x1="223.67" y1="127.42" x2="223.67" y2="253.71" gradientUnits="userSpaceOnUse"><stop offset="0" stop-color="#ff2d42" stop-opacity="0.67"/><stop offset="0.02" stop-color="#f72d42" stop-opacity="0.68"/><stop offset="0.19" stop-color="#b02d42" stop-opacity="0.78"/><stop offset="0.36" stop-color="#752d42" stop-opacity="0.86"/><stop offset="0.52" stop-color="#482d42" stop-opacity="0.92"/><stop offset="0.69" stop-color="#272d42" stop-opacity="0.96"/><stop offset="0.85" stop-color="#142d42" stop-opacity="0.99"/><stop offset="1" stop-color="#0d2d42"/></linearGradient><linearGradient id="linear-gradient-3" x1="43.17" y1="127.42" x2="43.17" y2="253.71" xlink:href="#linear-gradient-2"/></defs><title>competition</title><g id="Layer_2" data-name="Layer 2"><g id="Layer_1-2" data-name="Layer 1"><circle class="cls-1" cx="133.69" cy="133.69" r="133.69"/><path class="cls-2" d="M111.67,108.81,76.31,83.11H120.1l13.6-41.74,13.6,41.74h43.78l-35.49,25.7,13.73,41.74-35.62-25.83L98.2,150.55Z"/><path class="cls-2" d="M211.46,141l-19.1-14.42,23.93-.45,7.93-22.73,7.85,22.73,24,.45L236.9,141l7.1,23-19.78-13.82L204.51,164Z"/><path class="cls-2" d="M63.27,164l-19.7-13.82L23.78,164l7.1-23L11.7,126.56l24-.45,7.85-22.73,7.93,22.73,23.93.45L56.32,141Z"/><path class="cls-3" d="M76.67,248.8,87.13,259a132.44,132.44,0,0,0,103.55-4.5V83.14h-114Z"/><path class="cls-4" d="M255.67,127.14h-64V253.86l.29.06a134.17,134.17,0,0,0,62.15-62.69l1.56-3.89Z"/><path class="cls-5" d="M11.67,187.68c12,28.91,35,52.43,63,66.25V127.14h-63Z"/></g></g></svg>