<svg xmlns="http://www.w3.org/2000/svg" viewBox="0 0 112.12 112.12"><defs><style>.cls-1{fill:#fff;}</style></defs><title>free</title><g id="Layer_2" data-name="Layer 2"><g id="Layer_1-2" data-name="Layer 1"><path class="cls-1" d="M74,76.06c0,7.73-5,11-14.1,11H56.53v7.83h-1V87h-15V86h15V57.16l-5.87-4.6C41.94,46.59,38.9,44,38.9,39.35c0-7.83,5.19-11.06,14.78-11.06h1.86V20.45h1v7.83H72.87v1H56.53V56.58l7.15,5.58C70.23,67.34,74,71.46,74,76.06ZM55.55,55.79V29.26H53.69c-9,0-13.61,2.84-13.61,10.08,0,4.11,2.25,6.27,10.28,12.43ZM72.78,76.06c0-4.11-3.13-7.93-9.89-13.12l-6.36-5V86h3.33C68.37,86,72.78,83.3,72.78,76.06Z"/><path class="cls-1" d="M56.06,112.12a56.06,56.06,0,1,1,56.06-56.06A56.13,56.13,0,0,1,56.06,112.12ZM56.06,1a55.06,55.06,0,1,0,55.06,55.06A55.12,55.12,0,0,0,56.06,1Z"/><line class="cls-1" x1="88.48" y1="9.9" x2="23.34" y2="99.85"/><rect class="cls-1" x="0.38" y="54.38" width="111.06" height="1" transform="translate(-21.32 68.04) rotate(-54.14)"/></g></g></svg>