<?xml version="1.0" encoding="utf-8"?>
<!-- Generator: Adobe Illustrator 19.2.1, SVG Export Plug-In . SVG Version: 6.00 Build 0)  -->
<svg version="1.1" id="Layer_1" xmlns="http://www.w3.org/2000/svg" xmlns:xlink="http://www.w3.org/1999/xlink" x="0px" y="0px"
	 viewBox="0 0 374.2 293.5" style="enable-background:new 0 0 374.2 293.5;" xml:space="preserve">
<style type="text/css">
	.st0{fill:url(#SVGID_1_);}
	.st1{fill:url(#SVGID_2_);}
	.st2{fill:url(#SVGID_3_);}
	.st3{fill:#5A8FB3;}
</style>
<linearGradient id="SVGID_1_" gradientUnits="userSpaceOnUse" x1="156.2824" y1="121.5394" x2="117.2291" y2="82.4861">
	<stop  offset="0" style="stop-color:#CAFF42;stop-opacity:0.8"/>
	<stop  offset="0.8222" style="stop-color:#CAFF42;stop-opacity:0.5"/>
	<stop  offset="0.9071" style="stop-color:#E3FF9A;stop-opacity:0.2612"/>
	<stop  offset="1" style="stop-color:#FFFFFF;stop-opacity:0"/>
</linearGradient>
<path class="st0" d="M274.1,0.9c-31.6,21.6-62.6,44.1-93.7,66.3c-49.3,35.2-98.6,70.4-148.1,105.5c-8.3,5.9-16.8,11.6-24.9,17.7
	c-2.3,1.7-4.5,3.4-6.8,5.1c-0.6,0.4-1.2,0.9-1.8,1.3c-0.5,0.4-1.6,1.4-0.5,0.3c0,0-0.1,0.1-0.2,0.1c-3.7,2.7-0.1,8.8,3.6,6.1
	c31.1-22.4,61.9-45.1,92.9-67.6c49.1-35.7,98.1-71.4,147.1-107.2c11.3-8.3,22.6-16.5,33.8-25C277.1,2.4,275.7-0.2,274.1,0.9
	L274.1,0.9z"/>
<linearGradient id="SVGID_2_" gradientUnits="userSpaceOnUse" x1="202.5582" y1="159.7178" x2="159.9063" y2="117.0659">
	<stop  offset="0" style="stop-color:#CAFF42;stop-opacity:0.8"/>
	<stop  offset="0.8222" style="stop-color:#CAFF42;stop-opacity:0.5"/>
	<stop  offset="0.9071" style="stop-color:#E3FF9A;stop-opacity:0.2612"/>
	<stop  offset="1" style="stop-color:#FFFFFF;stop-opacity:0"/>
</linearGradient>
<path class="st1" d="M330.2,29.2c-10.1,6.6-20,13.6-29.9,20.4c-24,16.6-47.9,33.4-71.7,50.2c-28.8,20.2-57.4,40.6-86.1,60.9
	c-24.8,17.6-49.6,35.1-74.4,52.7c-12.1,8.5-24.6,16.7-36.3,25.7c-0.2,0.1-0.4,0.3-0.5,0.4c-5.2,3.7-0.2,12.5,5.1,8.7
	c1-0.7,1.6-1.1,0.5-0.4c0.5-0.4,1-0.8,1.5-1.1c1.9-1.4,3.9-2.8,5.8-4.2c7.2-5.3,14.5-10.5,21.7-15.8c23.5-17.1,47.1-34.2,70.6-51.4
	c28.6-20.8,57.2-41.5,85.8-62.4c24.6-18,49.2-36.1,73.8-54.2c8-5.9,16-11.9,24-17.8c3.6-2.6,8.5-5.4,11.4-8.8
	c0.1-0.2,0.4-0.3,0.5-0.4C333.5,30.6,331.7,28.2,330.2,29.2L330.2,29.2z"/>
<linearGradient id="SVGID_3_" gradientUnits="userSpaceOnUse" x1="224.9826" y1="207.2741" x2="195.0985" y2="177.3901">
	<stop  offset="0" style="stop-color:#CAFF42;stop-opacity:0.8"/>
	<stop  offset="0.8222" style="stop-color:#CAFF42;stop-opacity:0.5"/>
	<stop  offset="0.9071" style="stop-color:#E3FF9A;stop-opacity:0.2612"/>
	<stop  offset="1" style="stop-color:#FFFFFF;stop-opacity:0"/>
</linearGradient>
<path class="st2" d="M337.7,92.7c-30.1,19.8-58.3,42.7-87,64.3c-45.9,34.4-91.5,69.1-137.1,103.9c-10.4,8-20.9,15.9-31.3,23.9
	c-4.5,3.5,0,11.3,4.5,7.8c28.7-22.1,57.2-44.4,85.7-66.7c45.3-35.5,90.5-71,135.7-106.7c10.4-8.2,20.7-16.4,30.6-25.2
	C339.5,93.4,338.5,92.1,337.7,92.7L337.7,92.7z"/>
<g>
	<path class="st3" d="M334.2,25.4l21.2-14c13.7-8.9,17.3-10.8,18.5-9c1.1,1.7-1.8,4.4-15.1,14l-21,14.4l2.7,54.8
		c0.5,9.9-2.3,11.8-4.9,13.6c-2.4,1.6-3.1,0.6-4.5-5.3l-10.8-48.3c-0.7-2.7-1.4-2.9-2.2-2.4l-33.2,21.9l-1.3,17.6
		c-0.1,3.2,0.1,4.2-2.3,5.4l-1.1,0.6c-1.5,0.8-1.9-0.4-2.2-1.7l-4-15l-5.6,3.2l-1.3-1.9l5.2-3.9l-12.4-9.3c-0.9-0.7-2-1.6-0.7-2.7
		l0.9-0.8c2.1-1.8,3.1-1.2,5.7-0.3l16.9,5.5l32.7-22.7c0.8-0.5,0.9-1.4-1.3-3L273.2,8.3c-5-3.5-5.7-4.5-3.2-6.2
		c2.7-1.8,5.4-3.8,14.4,0.3L334.2,25.4z"/>
</g>
</svg>
