<svg xmlns="http://www.w3.org/2000/svg" viewBox="0 0 105.01 139.5"><defs><style>.cls-1{fill:#fff;}</style></defs><title>vegan</title><g id="Layer_2" data-name="Layer 2"><g id="Layer_1-2" data-name="Layer 1"><path class="cls-1" d="M105,69.24c0,9.18-4,17.3-12.25,26.33L52.5,139.5,12.25,95.57C4,86.53,0,78.42,0,69.24,0,53.62,11.33,41.53,27.4,41.53c11.48,0,17.76,5.2,25.1,12.86,7.35-7.65,13.32-12.86,24.8-12.86C93.37,41.53,105,53.78,105,69.24ZM53,56.07l-.46.46L52,56.07c-7.5-8-13.47-13-24.65-13-15.15,0-25.87,11.48-25.87,26.18,0,8.73,3.83,16.53,11.94,25.41l39,42.71,39-42.71c8.11-8.88,11.94-16.68,11.94-25.41,0-14.7-10.87-26.18-26.18-26.18C66,43.06,60.31,48.11,53,56.07Z"/><path class="cls-1" d="M50.3,38.1A29.43,29.43,0,0,1,26.22,25.21,1.9,1.9,0,0,1,25.94,23a1.89,1.89,0,0,1,1.28-.72l.46-.07a12,12,0,0,1-2.1-2A8.17,8.17,0,0,1,23.8,12.8a4.19,4.19,0,0,1,3.36-3.1,3.17,3.17,0,0,1,1.28.15A26.06,26.06,0,0,1,27,4.52a4.7,4.7,0,0,1,.17-2.9A3.43,3.43,0,0,1,31.07.11a7.6,7.6,0,0,1,3.28,2.09,36.29,36.29,0,0,1,6,7.43,14.64,14.64,0,0,0-.41-1.92c-.42-1.59-.85-3.24,0-4.76a3.58,3.58,0,0,1,2.8-1.8,4.93,4.93,0,0,1,4.12,1.44c2,2.16,1.82,5.32,1.53,7-.18,1-.45,2.05-.72,3l-.25.94,2.42-3.09a2.73,2.73,0,0,1,.77-.73A1.8,1.8,0,0,1,52,9.58,3.08,3.08,0,0,1,53.72,11c1.41,2.46.52,5.41-.48,7.46-.29.6-.62,1.2-.94,1.79s-.52,1-.76,1.43a4.11,4.11,0,0,1,.48-.25,3.24,3.24,0,0,1,2.69.05A2.3,2.3,0,0,1,56,23a3.75,3.75,0,0,1-.09,1.72L54.73,30a6.18,6.18,0,0,0-.21,2.56,1.66,1.66,0,0,0,1.29,1.37l-.09,1.31a2.93,2.93,0,0,1-2.48-2.41,7.26,7.26,0,0,1,.21-3.12l1.15-5.26a2.72,2.72,0,0,0,.1-1.13,1,1,0,0,0-.57-.65,2,2,0,0,0-1.57,0A6,6,0,0,0,50.31,25l-1.78,2.79.58-3.25a16.42,16.42,0,0,1,2-4.94c.32-.58.63-1.15.92-1.74.7-1.44,1.7-4.16.52-6.23a1.8,1.8,0,0,0-1-.82.47.47,0,0,0-.39,0,1.71,1.71,0,0,0-.39.41l-5.58,7.11.27-2.32a26,26,0,0,1,.83-3.8c.26-1,.53-1.94.69-2.91.25-1.46.43-4.16-1.2-5.9a3.58,3.58,0,0,0-3-1,2.34,2.34,0,0,0-1.81,1.12c-.58,1.07-.24,2.39.13,3.8s.8,3.07.16,4.56l-.54,1.25L40.17,12a35,35,0,0,0-6.73-8.84,6.3,6.3,0,0,0-2.69-1.76,2.12,2.12,0,0,0-2.37.83,3.53,3.53,0,0,0-.05,2.09,18.53,18.53,0,0,0,2.61,7.44l.33.36a14.11,14.11,0,0,0,1.32,1.33,6,6,0,0,0,1.44.77l-.38,1.25a4.58,4.58,0,0,1-1.83-1,8.46,8.46,0,0,1-1.9-1.94c-.85-.91-1.64-1.63-2.63-1.54a2.89,2.89,0,0,0-2.21,2.18,6.85,6.85,0,0,0,1.54,6.23,12.55,12.55,0,0,0,4,3.07,7,7,0,0,1,1.89.89l-.62,1.15q-.94-.4-1.76-.82a5.77,5.77,0,0,0-2.62-.12c-.34.06-.42.14-.43.16s0,.26.28.74A28.07,28.07,0,0,0,51.18,36.77l0,1.31Z"/><path class="cls-1" d="M65.95,37.92h-.27c-3.37-.14-6.22-2.12-8.86-4.14l.8-1c2.47,1.89,5.13,3.75,8.11,3.87a6.2,6.2,0,0,0,4.53-1.88,3.71,3.71,0,0,0,1.07-3l-.17-1.48,1.21.87a7.49,7.49,0,0,0,3.25,1.63A2.09,2.09,0,0,0,78,31.41a3.46,3.46,0,0,0-.58-2A5.26,5.26,0,0,1,76.65,27l0-.87.83.25a8.85,8.85,0,0,0,5.58.06,4.82,4.82,0,0,0,3.22-3.93,2.23,2.23,0,0,0-.64-1.85c-1-.81-2.69,0-3.93.9l-1.29.89,1.16-6.61c.12-.67,0-.78,0-.79s-.09-.06-.36,0c-1.71.11-3.3,1.48-4.74,4.07L76,19.9c-1,1.94-2.13,4-4.12,5.06l-.43.24-.35-.35a2.84,2.84,0,0,1-.53-2.4c.06-.68.08-1.1-.15-1.24a1.19,1.19,0,0,0-.63,0A8.42,8.42,0,0,0,63.13,26l-1.22,2.66-.11-8.23a2,2,0,0,0,0-.2,1.25,1.25,0,0,0-.28.1A12,12,0,0,0,55,32.9l-1.29.23a13.36,13.36,0,0,1,7.3-14,1.47,1.47,0,0,1,1.74.08,1.58,1.58,0,0,1,.42,1.2l0,3.07a9.78,9.78,0,0,1,6.55-3.59,2.25,2.25,0,0,1,1.43.23c.95.57.85,1.67.78,2.48a5.7,5.7,0,0,0,0,.85,12.45,12.45,0,0,0,3-4.14l.45-.83c1.67-3,3.62-4.61,5.81-4.75a1.85,1.85,0,0,1,1.22.29,2.06,2.06,0,0,1,.54,2.08l-.64,3.64c1.75-.91,3.17-.93,4.23-.07a3.45,3.45,0,0,1,1.12,3,6.15,6.15,0,0,1-4.07,5.07,9.55,9.55,0,0,1-5.4.24,9.85,9.85,0,0,0,.44.94,4.51,4.51,0,0,1,.7,2.78c-.29,1.71-2.21,2.64-3.81,2.46a6.78,6.78,0,0,1-2.86-1.17,5.29,5.29,0,0,1-1.38,2.7A7.37,7.37,0,0,1,65.95,37.92Z"/></g></g></svg>