<svg xmlns="http://www.w3.org/2000/svg" viewBox="0 0 139.04 96.88"><defs><style>.cls-1{fill:#fff;}</style></defs><title>wifi</title><g id="Layer_2" data-name="Layer 2"><g id="Layer_1-2" data-name="Layer 1"><path class="cls-1" d="M.65,29.45,0,28.78C19.69,9.69,43.13,0,69.67,0h0C96.24,0,119.57,9.57,139,28.45l-.65.67C119.11,10.42,96,.93,69.7.93h0C43.38.94,20.16,10.54.65,29.45ZM116.13,51.72C103,39.08,87.35,32.67,69.76,32.65H69.7c-17.59,0-33.18,6.38-46.33,19l.64.67C37,39.88,52.35,33.58,69.7,33.58h.07c17.34,0,32.73,6.35,45.72,18.82ZM93,74.88a32.94,32.94,0,0,0-23.27-9.56h0A32.75,32.75,0,0,0,46.47,74.8l.64.68A31.84,31.84,0,0,1,69.7,66.25h0a32,32,0,0,1,22.63,9.3Zm-23.31,22A2.88,2.88,0,1,1,72.57,94,2.9,2.9,0,0,1,69.7,96.88Z"/></g></g></svg>