<?xml version="1.0" encoding="utf-8"?>
<!-- Generator: Adobe Illustrator 19.2.1, SVG Export Plug-In . SVG Version: 6.00 Build 0)  -->
<svg version="1.1" id="Layer_1" xmlns="http://www.w3.org/2000/svg" xmlns:xlink="http://www.w3.org/1999/xlink" x="0px" y="0px"
	 viewBox="0 0 150.7 105.9" style="enable-background:new 0 0 150.7 105.9;" xml:space="preserve">
<style type="text/css">
	.st0{stroke:#000000;stroke-miterlimit:10;}
</style>
<path class="st0" d="M1.4,32.1l-0.7-0.7C21.8,10.9,47,0.5,75.4,0.5l0,0c28.5,0,53.5,10.3,74.4,30.5l-0.7,0.7
	c-20.7-20-45.5-30.2-73.7-30.2l0,0C47.2,1.5,22.3,11.8,1.4,32.1z M125.2,56c-14.1-13.6-30.9-20.4-49.7-20.5c0,0,0,0-0.1,0
	c-18.9,0-35.6,6.8-49.7,20.3l0.7,0.7c13.9-13.3,30.4-20.1,49-20.1c0,0,0,0,0.1,0c18.6,0,35.1,6.8,49,20.2L125.2,56z M100.5,80.8
	C93.4,74,85,70.6,75.5,70.5l0,0c-9.5,0-17.8,3.4-24.9,10.2l0.7,0.7c6.9-6.6,15-9.9,24.2-9.9l0,0c9.2,0,17.3,3.4,24.3,10L100.5,80.8z
	 M75.5,104.4c-1.7,0-3.1-1.4-3.1-3.1s1.4-3.1,3.1-3.1s3.1,1.4,3.1,3.1C78.5,103,77.2,104.4,75.5,104.4z"/>
</svg>
