<?xml version="1.0" encoding="utf-8"?>
<!-- Generator: Adobe Illustrator 19.2.1, SVG Export Plug-In . SVG Version: 6.00 Build 0)  -->
<svg version="1.1" id="Layer_1" xmlns="http://www.w3.org/2000/svg" xmlns:xlink="http://www.w3.org/1999/xlink" x="0px" y="0px"
	 viewBox="0 0 229.6 115.3" style="enable-background:new 0 0 229.6 115.3;" xml:space="preserve">
<style type="text/css">
	.st0{fill:#5A8FB3;}
	.st1{fill:#CAFF42;}
</style>
<g>
	<g>
		<path class="st0" d="M93.8,63.4L60.6,39.2h41.2L114.5,0l12.8,39.2h41.2l-33.4,24.2l12.9,39.2l-33.5-24.3l-33.4,24.3L93.8,63.4z
			 M114.5,76.8l30.9,22.5l-11.9-36.4l31.1-22.4h-38.4L114.5,4.1l-11.8,36.4H64.4l30.9,22.4L83.5,99.3L114.5,76.8z"/>
	</g>
</g>
<g>
	<g>
		<path class="st1" d="M187.7,93.7l-18-13.6l22.5-0.4l7.5-21.4l7.4,21.4l22.6,0.4l-18,13.6l6.7,21.6l-18.6-13l-18.5,13L187.7,93.7z
			 M199.7,99.4l14.5,10.4l-5.4-17l14.4-10.6L205.3,82l-5.6-17l-5.7,17l-17.9,0.1l14.3,10.6l-5.4,17L199.7,99.4z"/>
	</g>
</g>
<g>
	<g>
		<path class="st1" d="M48.3,115.3l-18.5-13l-18.6,13l6.7-21.6l-18-13.6l22.6-0.4l7.4-21.4l7.5,21.4l22.5,0.4l-18,13.6L48.3,115.3z
			 M44.4,109.8l-5.4-17l14.3-10.6L35.4,82l-5.7-17l-5.6,17L6.2,82.2l14.4,10.6l-5.4,17l14.5-10.4L44.4,109.8z"/>
	</g>
</g>
</svg>
