<svg xmlns="http://www.w3.org/2000/svg" xmlns:xlink="http://www.w3.org/1999/xlink" viewBox="0 0 305.73 305.73"><defs><style>.cls-1{fill:url(#Pink_to_Blue);}.cls-2{fill:#fff;}</style><radialGradient id="Pink_to_Blue" cx="234.51" cy="86.73" r="302.76" gradientUnits="userSpaceOnUse"><stop offset="0" stop-color="#ff2d42"/><stop offset="0.08" stop-color="#dd2d42"/><stop offset="0.21" stop-color="#a72d42"/><stop offset="0.35" stop-color="#782d42"/><stop offset="0.49" stop-color="#512d42"/><stop offset="0.62" stop-color="#332d42"/><stop offset="0.75" stop-color="#1e2d42"/><stop offset="0.88" stop-color="#112d42"/><stop offset="1" stop-color="#0d2d42"/></radialGradient></defs><title>compass</title><g id="Layer_2" data-name="Layer 2"><g id="Layer_1-2" data-name="Layer 1"><path class="cls-1" d="M154.81,55h-3.89V0h3.89Zm-17,1.15L128.23,2l-3.83.68L134,56.82Zm-16.57,4.09L102.41,8.55,98.75,9.88l18.81,51.68Zm-15.61,6.9L78.12,19.51l-3.37,1.94,27.5,47.63ZM91.44,76.64,56.09,34.51l-3,2.5L88.46,79.14ZM79.14,88.46,37,53.12l-2.5,3L76.64,91.44ZM69.08,102.25,21.45,74.75l-1.94,3.37,47.63,27.5Zm-7.52,15.32L9.88,98.75l-1.33,3.65,51.68,18.81ZM56.82,134,2.66,124.4,2,128.23l54.16,9.55Zm-1.82,17H0v3.89H55Zm1.82,20.86-.67-3.83L2,177.49l.67,3.83Zm4.74,16.39-1.33-3.65L8.55,203.32,9.88,207Zm7.52,15.32-1.94-3.37-47.63,27.5L21.45,231Zm10.06,13.78-2.5-3L34.51,249.63l2.5,3Zm12.3,11.82-3-2.5L53.12,268.71l3,2.5Zm14.17,9.51-3.37-1.94-27.5,47.63,3.37,1.94Zm15.61,6.9-3.65-1.33L98.75,295.84l3.65,1.33Zm16.57,4.09-3.83-.68-9.55,54.16,3.83.68Zm17,1.15h-3.89v55h3.89Zm26.51,52.33-9.55-54.16-3.83.68,9.55,54.16ZM207,295.84l-18.81-51.68-3.65,1.33,18.81,51.68Zm24-11.57-27.5-47.63-3.37,1.94,27.5,47.63Zm21.63-15.56-35.35-42.13-3,2.5,35.35,42.13Zm18.6-19.08-42.13-35.35-2.5,3,42.13,35.35Zm15-22-47.63-27.5-1.94,3.37L284.27,231Zm11-24.29L245.5,184.51l-1.33,3.65L295.84,207Zm6.57-25.83-54.16-9.55-.67,3.83,54.16,9.55Zm2-26.57h-55v3.89h55Zm-2-22.68-.67-3.83L248.91,134l.67,3.83Zm-6.57-25.83-1.33-3.65-51.68,18.81,1.33,3.65Zm-11-24.29-1.94-3.37-47.63,27.5,1.94,3.37Zm-15-22-2.5-3L226.59,88.46l2.5,3ZM252.61,37l-3-2.5L214.28,76.64l3,2.5ZM231,21.45l-3.37-1.94-27.5,47.63,3.37,1.94ZM207,9.88l-3.65-1.33L184.51,60.23l3.65,1.33ZM181.32,2.66,177.49,2l-9.55,54.16,3.83.68ZM153.39,239.13c48.56,0,86.72-38.16,86.72-86.72S202,65.7,153.39,65.7s-86.72,38.16-86.72,86.72S104.83,239.13,153.39,239.13Z"/><path class="cls-2" d="M169.25,136.8l-5.45,9.66L227,152.41l-63.18,6.19,5.45,9.66-10.16-5.2L153.39,226l-5.95-62.93-9.91,5.2,5.45-9.66-63.18-6.19L143,146.47l-5.2-9.66,9.66,5.2,5.7-62.93L159.34,142Zm-10.16,15.61c0-4.46-1.24-5.7-5.7-5.7s-5.7,1.24-5.7,5.7c0,4.71,1.24,5.95,5.7,5.95S159.09,157.12,159.09,152.41Z"/></g></g></svg>