<?xml version="1.0" encoding="utf-8"?>
<!-- Generator: Adobe Illustrator 19.2.1, SVG Export Plug-In . SVG Version: 6.00 Build 0)  -->
<svg version="1.1" id="Layer_1" xmlns="http://www.w3.org/2000/svg" xmlns:xlink="http://www.w3.org/1999/xlink" x="0px" y="0px"
	 viewBox="0 0 110.1 54.1" style="enable-background:new 0 0 110.1 54.1;" xml:space="preserve">
<style type="text/css">
	.st0{fill:#FF5792;}
</style>
<g>
	<polygon class="st0" points="78.4,28.5 80.1,28.5 78.4,28.5 	"/>
	<polygon class="st0" points="85,28.5 83.1,31.6 85,28.5 	"/>
	<polygon class="st0" points="85,28.5 85,28.5 80.1,28.5 	"/>
	<path class="st0" d="M42.2,9.1c-9.4-5.4-24-5.9-31.7,4.1c-7.7,10-2.5,15.4,3.4,15.4h4.4l8.1-12.7h6.4l-7.9,12.6c4.7,0,8.9,0,8.9,0
		l-2.1,3.4c0,0-4.2,0-8.9,0L9,54.1l-7.1,0l14.2-22.2h-4.3c-11.2,0-16-8.9-7.1-20.3C18.5-6.2,40.7,1,45.5,4.1
		c4.7,3.1,11.4,4.2,15.3,4.2c7.6,0,5.5-4.4,5.5-4.4C76.8,13.7,57,17.5,42.2,9.1z"/>
	<polygon class="st0" points="67.5,50.7 80.5,50.7 78.5,54.1 58.3,54.1 76.3,31.9 63,31.9 65.1,28.5 85,28.5 	"/>
	<path class="st0" d="M54.2,38.4l6.1-9.9l-19.4,0c-1.9,0-3.6,1-4.6,2.5L27,45.7c-2.3,3.6,0.3,8.4,4.6,8.4l12.9,0l5.6-9
		c0,0-2.2,8.1,4.6,9l3.3-5.5C58,48.6,50.5,48.3,54.2,38.4z M39.6,50.7l-5.1,0c-1.6,0-2.6-1.8-1.7-3.1l8.6-13.9
		c0.7-1.1,1.9-1.8,3.2-1.8h7L39.6,50.7z"/>
	<polygon class="st0" points="92.5,50.7 105.9,50.7 103.8,54.1 83.4,54.1 101.3,31.9 88,31.9 90.1,28.5 110,28.5 110,28.5 
		110.1,28.5 108,31.9 	"/>
</g>
</svg>
