<?xml version="1.0" encoding="utf-8"?>
<!-- Generator: Adobe Illustrator 20.0.0, SVG Export Plug-In . SVG Version: 6.00 Build 0)  -->
<svg version="1.1" id="Layer_1" xmlns="http://www.w3.org/2000/svg" xmlns:xlink="http://www.w3.org/1999/xlink" x="0px" y="0px"
	 viewBox="0 0 286 36" style="enable-background:new 0 0 286 36;" xml:space="preserve">
<style type="text/css">
	.st0{fill:none;}
	.st1{fill:#547DBF;}
	.st2{fill:url(#SVGID_1_);}
	.st3{fill:url(#SVGID_2_);}
	.st4{fill:#2D3079;fill-opacity:0.1;}
	.st5{fill:#FFCE40;}
	.st6{fill:url(#SVGID_3_);}
	.st7{fill:#DB4436;}
	.st8{fill:url(#SVGID_4_);}
	.st9{fill:url(#SVGID_5_);}
	.st10{fill:#3E2723;fill-opacity:5.000000e-02;}
	.st11{fill:#EEEEEE;}
	.st12{clip-path:url(#SVGID_7_);}
	.st13{clip-path:url(#SVGID_9_);}
	.st14{fill:#FFFFFF;fill-opacity:0.4;}
	.st15{fill:#262626;fill-opacity:5.000000e-02;}
	.st16{fill:#BE3A26;fill-opacity:5.000000e-02;}
	.st17{fill:#262626;fill-opacity:0.1;}
	.st18{clip-path:url(#SVGID_11_);fill:url(#SVGID_12_);}
	.st19{clip-path:url(#SVGID_14_);}
	.st20{fill:#FFFFFF;fill-opacity:0.2;}
	.st21{fill:url(#SVGID_15_);}
	.st22{opacity:0.54;enable-background:new    ;}
	.st23{clip-path:url(#SVGID_17_);fill:none;}
	.st24{clip-path:url(#SVGID_19_);}
	.st25{clip-path:url(#SVGID_21_);}
</style>
<symbol  id="logo_x5F_dark" viewBox="-208 -68 416 136">
	<path d="M-207.3,15.4c0,29,24.3,52.5,53.3,52.5c16,0,27.4-6.3,36-14.5l-10.2-10.1c-6.1,5.8-14.4,10.3-25.8,10.3
		c-21.1,0-37.6-17-37.6-38.1s16.5-38.1,37.6-38.1c13.7,0,21.5,5.5,26.5,10.5c4.1,4.1,6.8,10,7.8,18H-154v14.3h48.3
		c0.5-2.6,0.8-5.6,0.8-9c0-10.8-2.9-24.1-12.4-33.5C-126.6-31.9-138.4-37-154-37C-183-37-207.3-13.5-207.3,15.4z M-66,30.5
		c-18.7,0-33.9-14.2-33.9-33.8c0-19.5,15.2-33.8,33.9-33.8s33.9,14.3,33.9,33.8C-32.1,16.3-47.3,30.5-66,30.5z M-66-23.7
		c-10.2,0-19.1,8.4-19.1,20.5c0,12.2,8.8,20.5,19.1,20.5c10.2,0,19.1-8.3,19.1-20.5C-46.9-15.3-55.8-23.7-66-23.7z M8,30.5
		c-18.7,0-33.9-14.2-33.9-33.8c0-19.5,15.2-33.8,33.9-33.8S41.9-22.8,41.9-3.3C41.9,16.3,26.7,30.5,8,30.5z M8-23.7
		c-10.2,0-19.1,8.4-19.1,20.5C-11.1,9-2.3,17.3,8,17.3S27.1,9,27.1-3.2C27.1-15.3,18.2-23.7,8-23.7z M98.8,28.5V23h-0.5
		c-3.3,4-9.7,7.6-17.8,7.6c-16.9,0-32.4-14.8-32.4-33.9C48.1-22.2,63.6-37,80.5-37c8.1,0,14.5,3.6,17.8,7.7h0.5v-4.9
		c0-12.9-6.9-19.8-18-19.8c-9.1,0-14.7,6.5-17,12l-12.9-5.4c3.7-9,13.6-20,30-20c17.4,0,32.1,10.2,32.1,35.2v60.7
		C113,28.5,98.8,28.5,98.8,28.5z M81.8-23.7C71.6-23.7,63-15.1,63-3.3c0,11.9,8.6,20.6,18.8,20.6c10.1,0,18-8.7,18-20.6
		C99.9-15.2,91.9-23.7,81.8-23.7z"/>
	<polygon points="138,-35 123.2,-35 123.2,64.3 138,64.3 	"/>
	<path d="M178.7-23.7c-7.6,0-12.9,3.5-16.4,10.2l45.2,18.7L206,9c-2.8,7.6-11.4,21.5-28.9,21.5c-17.4,0-31.9-13.7-31.9-33.8
		c0-18.9,14.3-33.8,33.5-33.8c15.5,0,24.4,9.5,28.2,15l-11.5,7.7C191.5-20,186.3-23.7,178.7-23.7z M177.6,17.5
		c5.9,0,10.9-2.9,12.5-7.2L159.9-2.2C159.5,10.8,170,17.5,177.6,17.5z"/>
	<polygon class="st0" points="-208,-68 208,-68 208,68 -208,68 	"/>
</symbol>
<path class="st0" d="M35.5,17.2l-4.6-8.1l-2.9-5C27.6,3.5,26.9,3,26,3H11c-0.8,0-1.6,0.4-2,1.2l-4.6,8.1l-2.9,5
	c-0.4,0.7-0.4,1.6,0,2.3l7.5,13c0.4,0.7,1.2,1.2,2,1.2h15c0.8,0,1.6-0.4,2-1.2l7.5-13.1C35.9,18.8,35.9,18,35.5,17.2z M18.4,23
	c-2.5,0-4.6-2.1-4.6-4.6s2.1-4.6,4.6-4.6s4.6,2.1,4.6,4.6S21,23,18.4,23z"/>
<g>
	<path class="st1" d="M13.2,9.2h17.7l-2.9-5C27.6,3.5,26.9,3,26,3H11c-0.8,0-1.6,0.4-2,1.2l-4.6,8.1l8.8,15.3
		C13.2,27.6,13.2,9.2,13.2,9.2z"/>
	
		<linearGradient id="SVGID_1_" gradientUnits="userSpaceOnUse" x1="7.5507" y1="20.25" x2="15.2057" y2="24.6801" gradientTransform="matrix(1 0 0 -1 0 38)">
		<stop  offset="0" style="stop-color:#2D3079;stop-opacity:0.2"/>
		<stop  offset="0.66" style="stop-color:#2D3079;stop-opacity:0"/>
	</linearGradient>
	<path class="st2" d="M13.2,9.2h17.7l-2.9-5C27.6,3.5,26.9,3,26,3H11c-0.8,0-1.6,0.4-2,1.2l-4.6,8.1l8.8,15.3
		C13.2,27.6,13.2,9.2,13.2,9.2z"/>
	
		<linearGradient id="SVGID_2_" gradientUnits="userSpaceOnUse" x1="3.6798" y1="25.07" x2="8.1976" y2="20.5523" gradientTransform="matrix(1 0 0 -1 0 38)">
		<stop  offset="0" style="stop-color:#2D3079;stop-opacity:0.2"/>
		<stop  offset="1" style="stop-color:#2D3079;stop-opacity:4.000000e-02"/>
	</linearGradient>
	<polygon class="st3" points="4.4,12.3 8.9,16.7 8.1,18.8 	"/>
	<polygon class="st4" points="8.3,18.7 4.9,12.8 4.4,12.3 8.1,18.8 	"/>
	<path class="st5" d="M13.2,27.6L4.4,12.3l-2.9,5c-0.4,0.7-0.4,1.6,0,2.3l7.5,13c0.4,0.7,1.2,1.2,2,1.2h9.3l8.9-15.4L13.2,27.6z"/>
	
		<linearGradient id="SVGID_3_" gradientUnits="userSpaceOnUse" x1="23.4967" y1="9.7432" x2="15.9104" y2="14.1849" gradientTransform="matrix(1 0 0 -1 0 38)">
		<stop  offset="0" style="stop-color:#BE3A26;stop-opacity:0.15"/>
		<stop  offset="0.66" style="stop-color:#BE3A26;stop-opacity:0"/>
	</linearGradient>
	<path class="st6" d="M13.2,27.6L4.4,12.3l-2.9,5c-0.4,0.7-0.4,1.6,0,2.3l7.5,13c0.4,0.7,1.2,1.2,2,1.2h9.3l8.9-15.4L13.2,27.6z"/>
	<path class="st7" d="M30.9,9.2H13.2l15.9,9.2l-8.9,15.4H26c0.8,0,1.6-0.4,2-1.2l7.5-13.1c0.4-0.7,0.4-1.6,0-2.3L30.9,9.2z"/>
	
		<linearGradient id="SVGID_4_" gradientUnits="userSpaceOnUse" x1="24.5" y1="28.5956" x2="24.5" y2="19.7978" gradientTransform="matrix(1 0 0 -1 0 38)">
		<stop  offset="0" style="stop-color:#A52822;stop-opacity:0.2"/>
		<stop  offset="0.66" style="stop-color:#A52822;stop-opacity:0"/>
	</linearGradient>
	<path class="st8" d="M30.9,9.2H13.2l15.9,9.2l-8.9,15.4H26c0.8,0,1.6-0.4,2-1.2l7.5-13.1c0.4-0.7,0.4-1.6,0-2.3L30.9,9.2z"/>
	
		<linearGradient id="SVGID_5_" gradientUnits="userSpaceOnUse" x1="18.6731" y1="19.8769" x2="29.9839" y2="8.5661" gradientTransform="matrix(1 0 0 -1 0 38)">
		<stop  offset="0" style="stop-color:#3E2723;stop-opacity:0.15"/>
		<stop  offset="1" style="stop-color:#3E2723;stop-opacity:0"/>
	</linearGradient>
	<polygon class="st9" points="23.8,9.2 35.8,21.2 35.8,33.8 20.3,33.8 23.8,27.6 	"/>
	<rect x="23.7" y="9.2" class="st10" width="7.5" height="0.2"/>
</g>
<path class="st0" d="M35.5,17.2l-4.6-8.1l-2.9-5C27.6,3.5,26.9,3,26,3H11c-0.8,0-1.6,0.4-2,1.2l-4.6,8.1l-2.9,5
	c-0.4,0.7-0.4,1.6,0,2.3l7.5,13c0.4,0.7,1.2,1.2,2,1.2h15c0.8,0,1.6-0.4,2-1.2l7.5-13.1C35.9,18.8,35.9,18,35.5,17.2z M18.4,23
	c-2.5,0-4.6-2.1-4.6-4.6s2.1-4.6,4.6-4.6s4.6,2.1,4.6,4.6S21,23,18.4,23z"/>
<path class="st0" d="M30.9,9.2H13.2l15.9,9.2l-8.9,15.4H26c0.8,0,1.6-0.4,2-1.2l7.5-13.1c0.4-0.7,0.4-1.6,0-2.3L30.9,9.2z"/>
<g>
	<path class="st11" d="M23.8,9.2l5.3,9.2l-5.3,9.2H13.2l-5.3-9.2l5.3-9.2L23.8,9.2"/>
</g>
<path class="st0" d="M30.9,9.2H13.2l15.9,9.2l-8.9,15.4H26c0.8,0,1.6-0.4,2-1.2l7.5-13.1c0.4-0.7,0.4-1.6,0-2.3L30.9,9.2z"/>
<g>
	<path class="st1" d="M13.2,9.2h17.7l-2.9-5C27.6,3.5,26.9,3,26,3H11c-0.8,0-1.6,0.4-2,1.2l-4.6,8.1l8.8,15.3
		C13.2,27.6,13.2,9.2,13.2,9.2z"/>
</g>
<path class="st0" d="M35.5,17.2l-4.6-8.1l-2.9-5C27.6,3.5,26.9,3,26,3H11c-0.8,0-1.6,0.4-2,1.2l-4.6,8.1l-2.9,5
	c-0.4,0.7-0.4,1.6,0,2.3l7.5,13c0.4,0.7,1.2,1.2,2,1.2h15c0.8,0,1.6-0.4,2-1.2l7.5-13.1C35.9,18.8,35.9,18,35.5,17.2z M18.4,23
	c-2.5,0-4.6-2.1-4.6-4.6s2.1-4.6,4.6-4.6s4.6,2.1,4.6,4.6S21,23,18.4,23z"/>
<g>
	<g>
		<defs>
			<path id="SVGID_6_" d="M13.2,27.6L4.4,12.3l-2.9,5c-0.4,0.7-0.4,1.6,0,2.3l7.5,13c0.4,0.7,1.2,1.2,2,1.2h9.3l8.9-15.4L13.2,27.6z
				"/>
		</defs>
		<clipPath id="SVGID_7_">
			<use xlink:href="#SVGID_6_"  style="overflow:visible;"/>
		</clipPath>
		<g class="st12">
			<path class="st11" d="M23.8,9.2l5.3,9.2l-5.3,9.2H13.2l-5.3-9.2l5.3-9.2L23.8,9.2"/>
		</g>
	</g>
	<g>
		<defs>
			<path id="SVGID_8_" d="M35.5,17.2l-4.6-8.1l-2.9-5C27.6,3.5,26.9,3,26,3H11c-0.8,0-1.6,0.4-2,1.2l-4.6,8.1l-2.9,5
				c-0.4,0.7-0.4,1.6,0,2.3l7.5,13c0.4,0.7,1.2,1.2,2,1.2h15c0.8,0,1.6-0.4,2-1.2l7.5-13.1C35.9,18.8,35.9,18,35.5,17.2z M18.4,23
				c-2.5,0-4.6-2.1-4.6-4.6s2.1-4.6,4.6-4.6s4.6,2.1,4.6,4.6S21,23,18.4,23z"/>
		</defs>
		<clipPath id="SVGID_9_">
			<use xlink:href="#SVGID_8_"  style="overflow:visible;"/>
		</clipPath>
		<g class="st13">
			<path class="st11" d="M23.8,9.2l5.3,9.2l-5.3,9.2H13.2l-5.3-9.2l5.3-9.2L23.8,9.2"/>
			<polygon class="st14" points="23.8,9.4 29,18.4 29.2,18.4 23.8,9.2 13.2,9.2 7.9,18.4 8,18.4 13.2,9.4 			"/>
			<polygon class="st15" points="29,18.4 23.8,27.4 13.2,27.4 8,18.4 7.9,18.4 13.2,27.6 23.8,27.6 29.2,18.4 			"/>
			<polygon class="st16" points="29.2,18.4 23.8,27.6 13.2,27.6 7.9,18.4 7.9,18.6 13.2,27.8 23.8,27.8 29.2,18.6 			"/>
			<path class="st17" d="M18.4,13.6c-2.5,0-4.6,2.1-4.6,4.6H23C23.1,15.7,21,13.6,18.4,13.6z M13.8,18.6c0,2.5,2.1,4.6,4.6,4.6
				s4.6-2.1,4.6-4.6H13.8z"/>
		</g>
	</g>
	<g>
		<defs>
			<path id="SVGID_10_" d="M35.5,17.2l-4.6-8.1l-2.9-5C27.6,3.5,26.9,3,26,3H11c-0.8,0-1.6,0.4-2,1.2l-4.6,8.1l-2.9,5
				c-0.4,0.7-0.4,1.6,0,2.3l7.5,13c0.4,0.7,1.2,1.2,2,1.2h15c0.8,0,1.6-0.4,2-1.2l7.5-13.1C35.9,18.8,35.9,18,35.5,17.2z M18.4,23
				c-2.5,0-4.6-2.1-4.6-4.6s2.1-4.6,4.6-4.6s4.6,2.1,4.6,4.6S21,23,18.4,23z"/>
		</defs>
		<clipPath id="SVGID_11_">
			<use xlink:href="#SVGID_10_"  style="overflow:visible;"/>
		</clipPath>
		
			<linearGradient id="SVGID_12_" gradientUnits="userSpaceOnUse" x1="18.5" y1="10.3817" x2="18.5" y2="4.2616" gradientTransform="matrix(1 0 0 -1 0 38)">
			<stop  offset="0" style="stop-color:#3E2723;stop-opacity:0.15"/>
			<stop  offset="3.546852e-02" style="stop-color:#462823;stop-opacity:0.1447"/>
			<stop  offset="0.2522" style="stop-color:#712E24;stop-opacity:0.1122"/>
			<stop  offset="0.4625" style="stop-color:#923325;stop-opacity:8.062769e-02"/>
			<stop  offset="0.6619" style="stop-color:#AA3726;stop-opacity:5.071827e-02"/>
			<stop  offset="0.8459" style="stop-color:#B93926;stop-opacity:2.311477e-02"/>
			<stop  offset="1" style="stop-color:#BE3A26;stop-opacity:0"/>
		</linearGradient>
		<polygon class="st18" points="13.2,27.6 19.4,33.8 20.3,33.8 23.8,27.6 		"/>
	</g>
	<g>
		<defs>
			<path id="SVGID_13_" d="M35.5,17.2l-4.6-8.1l-2.9-5C27.6,3.5,26.9,3,26,3H11c-0.8,0-1.6,0.4-2,1.2l-4.6,8.1l-2.9,5
				c-0.4,0.7-0.4,1.6,0,2.3l7.5,13c0.4,0.7,1.2,1.2,2,1.2h15c0.8,0,1.6-0.4,2-1.2l7.5-13.1C35.9,18.8,35.9,18,35.5,17.2z M18.4,23
				c-2.5,0-4.6-2.1-4.6-4.6s2.1-4.6,4.6-4.6s4.6,2.1,4.6,4.6S21,23,18.4,23z"/>
		</defs>
		<clipPath id="SVGID_14_">
			<use xlink:href="#SVGID_13_"  style="overflow:visible;"/>
		</clipPath>
		<g class="st19">
			<path class="st20" d="M4.4,12.5L9,4.4c0.4-0.7,1.2-1.2,2-1.2h15c0.8,0,1.6,0.4,2,1.2l2.9,5l4.6,8.1c0.2,0.3,0.3,0.7,0.3,1.1
				c0-0.4-0.1-0.9-0.3-1.2l-4.6-8.1l-2.9-5C27.6,3.5,26.9,3,26,3H11c-0.8,0-1.6,0.4-2,1.2l-4.6,8.1l-2.9,5c-0.2,0.4-0.3,0.8-0.3,1.2
				c0-0.4,0.1-0.7,0.3-1.1L4.4,12.5z M11,33.6c-0.8,0-1.6-0.4-2-1.2l-4.6-8.1l-2.9-5c-0.2-0.3-0.3-0.7-0.3-1.1
				c0,0.4,0.1,0.9,0.3,1.2l2.9,5L9,32.6c0.4,0.7,1.2,1.2,2,1.2h9.3l0.1-0.2H11z M35.8,18.3c0,0.4-0.1,0.7-0.3,1.1l-4.6,8.1l-2.9,5
				c-0.4,0.7-1.2,1.2-2,1.2h-5.6l-0.1,0.2H26c0.8,0,1.6-0.4,2-1.2l2.9-5l4.6-8.1C35.7,19.2,35.8,18.7,35.8,18.3z"/>
		</g>
	</g>
	
		<radialGradient id="SVGID_15_" cx="9.8634" cy="556.4711" r="34.5676" gradientTransform="matrix(6.457271e-03 0 0 -6.457271e-03 1878.7893 -4827.3789)" gradientUnits="userSpaceOnUse">
		<stop  offset="0" style="stop-color:#FFFFFF;stop-opacity:0.1"/>
		<stop  offset="1" style="stop-color:#FFFFFF;stop-opacity:0"/>
	</radialGradient>
	<path class="st21" d="M35.5,17.2l-4.6-8.1l-2.9-5C27.6,3.5,26.9,3,26,3H11c-0.8,0-1.6,0.4-2,1.2l-4.6,8.1l-2.9,5
		c-0.4,0.7-0.4,1.6,0,2.3l7.5,13c0.4,0.7,1.2,1.2,2,1.2h15c0.8,0,1.6-0.4,2-1.2l7.5-13.1C35.9,18.8,35.9,18,35.5,17.2z M18.4,23
		c-2.5,0-4.6-2.1-4.6-4.6s2.1-4.6,4.6-4.6s4.6,2.1,4.6,4.6S21,23,18.4,23z"/>
	<rect x="1.2" y="-0.1" class="st0" width="34.6" height="36.9"/>
	<g class="st22">
		<g>
			<defs>
				<rect id="SVGID_16_" x="45.1" y="-0.1" width="239.5" height="36.9"/>
			</defs>
			<clipPath id="SVGID_17_">
				<use xlink:href="#SVGID_16_"  style="overflow:visible;"/>
			</clipPath>
			<rect x="45.1" y="7.8" class="st23" width="239.5" height="26.1"/>
		</g>
		<g>
			<defs>
				<rect id="SVGID_18_" x="45.1" y="-0.1" width="239.5" height="36.9"/>
			</defs>
			<clipPath id="SVGID_19_">
				<use xlink:href="#SVGID_18_"  style="overflow:visible;"/>
			</clipPath>
			<g class="st24">
				<path d="M130.5,18.8c0-5.2,4-9.2,9.2-9.2c2.7,0,4.9,1.1,6.5,2.9l-1.6,1.5c-1.2-1.5-2.9-2.2-4.9-2.2c-3.7,0-6.8,2.7-6.8,7
					s3.1,7,6.8,7c2.2,0,4.1-1,5.4-2.6l1.6,1.6c-1.5,1.8-4,3.1-7,3.1C134.5,28,130.5,24.1,130.5,18.8z M148.4,27.6V10h2.3v17.6H148.4
					z M164.8,21.6c0,3.7-2.6,6.4-6.2,6.4c-3.6,0-6.2-2.8-6.2-6.4c0-3.7,2.6-6.4,6.2-6.4C162.2,15.2,164.8,17.9,164.8,21.6z
					 M162.5,21.6c0-2.8-1.9-4.4-3.9-4.4s-3.9,1.6-3.9,4.4s1.9,4.4,3.9,4.4C160.6,25.9,162.5,24.3,162.5,21.6z M175,27.6v-1.7h-0.1
					c-0.7,1.1-2.2,2.1-3.8,2.1c-3.1,0-4.6-2.1-4.6-5.1v-7.4h2.3v7c0,2.5,1.3,3.4,3,3.4c2,0,3.2-1.9,3.2-3.7v-6.6h2.3v12.1L175,27.6
					L175,27.6z M179,21.6c0-3.7,2.7-6.4,5.7-6.4c1.9,0,3.4,1,4.1,2.1h0.1l-0.1-1.7V10h2.3v17.6H189v-1.7h-0.1
					c-0.7,1.1-2.2,2.1-4.1,2.1C181.7,28,179,25.3,179,21.6z M189,21.6c0-2.8-1.8-4.4-3.8-4.4s-3.8,1.6-3.8,4.4
					c0,2.7,1.8,4.4,3.8,4.4C187.1,25.9,189,24.3,189,21.6z M197.3,27.6V10h6c2.9,0,5.5,2.2,5.5,5.2s-2.6,5.2-5.5,5.2h-3.7v7.1h-2.3
					V27.6z M203.4,18.3c2,0,3.1-1.7,3.1-3.1s-1.1-3.1-3.1-3.1h-3.8v6.2H203.4z M210.4,27.6V10h2.3v17.6H210.4z M214.6,24
					c0-2.7,2.5-4.2,5.3-4.2c1.6,0,2.8,0.5,3.3,0.7v-0.3c0-1.8-1.5-2.9-3.1-2.9c-1.3,0-2.5,0.6-2.9,1.7l-2.1-0.9
					c0.4-1.1,1.9-2.9,4.9-2.9s5.4,1.8,5.4,5.2v7.3h-2.2V26h-0.1c-0.7,1-1.9,2.1-4,2.1C216.7,28,214.6,26.5,214.6,24z M223.2,22.4
					c0,0-1-0.8-2.9-0.8c-2.4,0-3.3,1.3-3.3,2.4c0,1.3,1.3,1.9,2.5,1.9C221.3,25.9,223.2,24.4,223.2,22.4z M228.6,24v-6.3h-2.1v-2.1
					h2.1v-3.7h2.3v3.7h3v2.1h-3v6.2c0,1.4,0.6,2,1.6,2c0.4,0,0.7,0,1-0.2l0.8,1.9c-0.5,0.2-1.1,0.3-1.8,0.3
					C230,27.8,228.6,26.4,228.6,24z M243.3,10.2l-0.8,1.9c-0.3-0.1-0.6-0.2-1-0.2c-1.1,0-2,0.7-2,2.1v1.5h3.1v2.1h-3.1v10h-2.3v-10
					H235v-2.1h2.3V14c0-2.5,1.7-4.1,4.3-4.1C242.3,9.9,242.8,10,243.3,10.2z M255.7,21.6c0,3.7-2.6,6.4-6.2,6.4
					c-3.6,0-6.2-2.8-6.2-6.4c0-3.7,2.6-6.4,6.2-6.4C253.1,15.2,255.7,17.9,255.7,21.6z M253.4,21.6c0-2.8-1.9-4.4-3.9-4.4
					s-3.9,1.6-3.9,4.4s1.9,4.4,3.9,4.4C251.5,25.9,253.4,24.3,253.4,21.6z M257.5,27.6v-12h2.2v2h0.1c0.5-1.4,2.2-2.3,3.5-2.3
					c0.7,0,1.2,0.1,1.7,0.3l-0.9,2.1c-0.3-0.1-0.7-0.2-1.2-0.2c-1.6,0-3.1,1.3-3.1,3.5v6.6H257.5z M266.2,15.6h2.2v1.7h0.1
					c0.7-1.2,2.3-2.1,3.7-2.1c1.9,0,3.2,0.9,3.8,2.3c0.9-1.4,2.3-2.3,4.2-2.3c3,0,4.3,2.1,4.3,5.1v7.4h-2.3v-7c0-2.5-1-3.3-2.7-3.3
					c-1.8,0-3.1,1.9-3.1,3.7v6.7h-2.3v-7c0-2.5-1-3.3-2.7-3.3c-1.8,0-3.1,1.9-3.1,3.7v6.7H266V15.6H266.2z"/>
			</g>
		</g>
		<g>
			<defs>
				<rect id="SVGID_20_" x="45.1" y="-0.1" width="239.5" height="36.9"/>
			</defs>
			<clipPath id="SVGID_21_">
				<use xlink:href="#SVGID_20_"  style="overflow:visible;"/>
			</clipPath>
			<g class="st25">
				
					<use xlink:href="#logo_x5F_dark"  width="416" height="136" x="-208" y="-68" transform="matrix(0.1922 0 0 -0.1922 85.0372 20.8888)" style="overflow:visible;"/>
			</g>
		</g>
	</g>
</g>
</svg>
