<?xml version="1.0" encoding="utf-8"?>
<!-- Generator: Adobe Illustrator 20.0.0, SVG Export Plug-In . SVG Version: 6.00 Build 0)  -->
<svg version="1.1" id="Layer_1" xmlns="http://www.w3.org/2000/svg" xmlns:xlink="http://www.w3.org/1999/xlink" x="0px" y="0px"
	 viewBox="0 0 1920 313.5" style="enable-background:new 0 0 1920 313.5;" xml:space="preserve">
<g>
	<g>
		<path d="M582.1,274.4C569.5,288,552.9,294,536.5,294c-17.5,0-34.4-7.2-46.5-20.9c-12.5-14.5-15.9-32-15.9-45.5V69.9
			c0-13,3-30.8,15.6-45.6C502.3,10,519.5,3.5,536.4,3.5c16.6,0,33.4,6,46.1,20.1C596.3,38.7,599,56.9,599,69.9v157.8
			C599.2,241.1,596.1,259.4,582.1,274.4z"/>
	</g>
	<g>
		<path d="M1110.7,228.9c-4.1,14.5-9.2,27.7-15.6,38.2c-12.6,20.1-33.7,26.7-52.3,26.7c-10.3,0-21.2-2-31.4-7.8
			c-9.3-5.1-16.6-12.4-21.9-20.6c-4.3-6.7-7.9-14.4-10.7-22.1l-5.1-14.5L929.7,98.6c-4.2-11.5-8.4-24.8-8.4-35.9
			c0-15.6,6.6-29,16.6-39c11-11,25.2-16.6,40.3-16.6c14.1,0,34.4,4.1,46.2,23.2c5.8,9.2,10.1,21.6,13.8,34.2l3.6,12.4l1.1-3.8
			c3.8-13,6.7-22.1,8.4-26.8c4.1-10.5,11-19,18.6-25.5c12.2-10.5,26.9-13.9,40.2-13.9c13,0,28,3,40.5,14
			c7.9,6.6,14.5,14.8,18.6,25.2c2.1,5.2,5.1,14.1,8.9,26.8l1.3,4.4l3.8-13c2.8-10,4.9-16.9,6.6-21.3c3.5-9.6,9.3-17.4,16.7-23.7
			c11.6-10.1,25.3-12.5,36.3-12.5c15,0,28.7,5.5,39.5,15.7c10.8,10.1,17.5,23.9,17.5,39.8c0,11.7-3.8,24.6-8.1,36.4l-44.2,129.8
			c-4.2,12-7.5,20.8-9.9,26.2c-4.4,10.2-11.1,18.6-19.2,25.3c-12.2,10.4-26.8,13.4-39.7,13.4c-13.7,0-28.8-3.7-41.1-14.3
			c-8.7-7.7-15.4-17.4-19.5-28.3C1115.7,245.4,1113.3,237.9,1110.7,228.9z"/>
	</g>
	<g>
		<g>
			<path d="M55.9,67.1C55.7,55.4,65,45.8,76.7,45.6s21.3,9.1,21.6,20.8c0.2,11.7-9.1,21.3-20.8,21.6C65.8,88.1,56.1,78.8,55.9,67.1z
				"/>
		</g>
		<g>
			<g>
				<g>
					<g>
						<path d="M281.6,69c0.4,25.6,21.6,46,47.2,45.6c25.6-0.4,46-21.6,45.6-47.2c-0.4-25.6-21.6-46-47.2-45.6
							C301.5,22.2,281.1,43.3,281.6,69z M30.8,69c0.4,25.6,21.6,46,47.2,45.6c25.6-0.4,46-21.6,45.6-47.2
							c-0.4-25.6-21.6-46-47.2-45.6C50.8,22.2,30.4,43.3,30.8,69z M202.9,115.9l66.5-85.3c60.4-75.4,169.5,2.4,107.9,84.2L334,169.5
							c-11.5,15.6-49.6,67-79.4,100.3c-16.4,18.3-67.9,35.9-101.1,1.8l-10.7-11c-16.5-18.3-35.4-43.3-48.9-61.8l-66-83.3
							C-32.7,37.9,76.1-44.3,135.3,30.5l66.8,84.4L202.9,115.9z"/>
					</g>
				</g>
			</g>
			<g>
				<path d="M309.2,67.2c-0.2-11.7,9.1-21.3,20.8-21.6c11.7-0.2,21.3,9.1,21.6,20.8c0.2,11.7-9.1,21.3-20.8,21.6
					C319.1,88.3,309.5,78.9,309.2,67.2z"/>
			</g>
		</g>
	</g>
	<g>
		<path d="M1776.2,50.1c8.2-11.9,16.1-22.1,16.1-22.1c26.8-33.6,66.7-33.9,92.5-14.7c26.3,19.6,35.9,58.1,8.9,93.9l-30.3,38.2
			c-6.3,8.5-22.1,29.8-38.4,49.8l-64.9,89.3c-7.9,11-21.2,23.9-41.3,27.8c-18.2,3.6-35.2-1.3-48.5-11c-14.1-10.3-23.6-26-25.3-44.2
			c-1.6-19.1,6-35.2,14-46.1l22.2-30.5c-4.2-5.4-8-10.6-11.5-15.2l-45.5-57.4c-27.3-34.9-16.6-73.2,8.9-92.9
			c25.2-19.6,65-20.9,92,13l36.5,46C1765.4,66.4,1771.1,57.5,1776.2,50.1z"/>
	</g>
	<g>
		<path d="M851.5,223.6c8.9,8.4,13,19.3,13,30.2c0,11.5-4.8,22.7-13.8,30.7c-9.6,8.3-21.2,10.5-30.1,10.5h-78.3
			c-3.5,0-7.4-0.3-11.6-1.3c-15.1-1.6-29.3-8.5-40-20.6c-12.5-14.5-15.9-32-15.9-45.5V69.9c0-13,3-30.8,15.6-45.6
			C701.8,11.6,716.6,5,731.6,3.7c2.1-0.3,4.1-0.3,5.9-0.3h78.3c8.9,0,21,2,30.9,11.3c8.9,8.4,13,19.3,13,30.2
			c0,11.5-4.8,22.7-13.8,30.7c-9.6,8.3-21.2,10.5-30.1,10.5h-15.9v22.5H824c8.9,0,21,2,30.9,11.3c8.9,8.4,13,19.3,13,30.2
			c0,11.5-4.8,22.7-13.8,30.7c-9.6,8.3-21.2,10.5-30.1,10.5h-24.1v21.3h20.7C829.4,212.3,841.5,214.4,851.5,223.6z"/>
	</g>
	<g>
		<path d="M1376.8,286.8c-13.6-12.6-19.6-29.3-19.6-45.6c0-2.3,0.1-4.5,0.3-6.7c-0.2-2.3-0.3-4.6-0.3-6.8V69.9
			c0-13,3-30.8,15.6-45.6c12.5-14.3,29.8-20.8,46.7-20.8c16.6,0,33.4,6,46.1,20.1c13.9,15.1,16.6,33.4,16.6,46.3v109h28.3
			c13,0,30.8,3,45.6,15.6c14.3,12.5,20.8,29.8,20.8,46.7c0,16.6-6,33.4-20.1,46.1c-15.1,13.9-33.4,16.6-46.3,16.6h-86.9
			C1410.1,303.8,1391.8,300.7,1376.8,286.8z"/>
	</g>
</g>
</svg>
