<?xml version="1.0" standalone="no"?>
<!DOCTYPE svg PUBLIC "-//W3C//DTD SVG 20010904//EN"
 "http://www.w3.org/TR/2001/REC-SVG-20010904/DTD/svg10.dtd">
<svg version="1.0" xmlns="http://www.w3.org/2000/svg"
 width="316.000000pt" height="316.000000pt" viewBox="0 0 316.000000 316.000000"
 preserveAspectRatio="xMidYMid meet">
<metadata>
Created by potrace 1.11, written by Peter Selinger 2001-2013
</metadata>
<g transform="translate(0.000000,316.000000) scale(0.100000,-0.100000)"
fill="#000000" stroke="none">
<path d="M0 1575 l0 -1575 1575 0 1575 0 0 1575 0 1575 -1575 0 -1575 0 0
-1575z m1660 695 c329 -43 565 -279 611 -614 28 -207 -61 -452 -216 -595 -182
-166 -448 -226 -685 -155 -319 95 -527 413 -490 746 40 353 320 609 685 626
11 1 54 -3 95 -8z m-1060 -338 c0 -4 -76 -84 -170 -177 -94 -93 -170 -175
-170 -181 0 -7 79 -89 175 -182 108 -105 171 -173 164 -178 -7 -4 -85 67 -195
177 l-184 184 182 182 c170 171 198 195 198 175z m2148 -175 l182 -182 -185
-185 c-101 -101 -188 -181 -192 -177 -4 4 73 87 170 185 l177 177 -175 175
c-163 163 -187 190 -167 190 4 0 89 -82 190 -183z"/>
<path d="M1420 2234 c-86 -18 -216 -83 -277 -138 l-48 -45 35 -31 c19 -17 57
-43 84 -59 l49 -29 51 85 c33 56 77 110 128 159 83 79 83 81 -22 58z"/>
<path d="M1665 2218 c22 -18 55 -49 73 -68 38 -40 128 -171 137 -201 6 -19 8
-19 53 6 26 15 65 42 87 61 l40 35 -47 43 c-80 73 -212 133 -338 151 l-45 7
40 -34z"/>
<path d="M1456 2158 c-50 -50 -97 -109 -119 -148 -56 -102 -58 -94 28 -119 42
-13 103 -25 136 -28 l59 -6 0 192 c0 126 -4 191 -10 191 -6 0 -48 -37 -94 -82z"/>
<path d="M1590 2050 l0 -190 38 0 c52 0 205 37 230 56 2 1 -13 35 -34 76 -27
50 -65 100 -125 161 -47 48 -91 87 -97 87 -9 0 -12 -52 -12 -190z"/>
<path d="M1036 1987 c-74 -99 -135 -264 -136 -364 l0 -33 145 0 144 0 5 33
c18 122 31 188 46 233 l18 51 -32 18 c-17 10 -58 40 -91 66 l-61 47 -38 -51z"/>
<path d="M2050 2015 c-7 -9 -45 -37 -85 -63 l-71 -48 17 -53 c18 -53 33 -124
44 -213 l6 -48 145 0 144 0 0 38 c0 99 -69 278 -141 365 -34 41 -41 44 -59 22z"/>
<path d="M1271 1871 c-20 -49 -41 -146 -48 -213 l-6 -68 172 0 171 0 0 120 c0
135 9 123 -93 134 -26 3 -79 16 -117 29 l-69 23 -10 -25z"/>
<path d="M1797 1873 c-38 -13 -89 -26 -115 -29 -100 -11 -92 1 -92 -134 l0
-120 171 0 172 0 -6 73 c-6 71 -42 217 -55 227 -4 3 -38 -5 -75 -17z"/>
<path d="M900 1529 c0 -100 75 -295 143 -374 l35 -40 38 32 c22 18 62 47 90
64 l50 31 -23 81 c-13 44 -26 105 -29 136 -11 111 6 101 -159 101 l-145 0 0
-31z"/>
<path d="M1220 1527 c0 -49 18 -143 41 -213 l20 -61 62 22 c35 13 85 26 112
30 28 3 62 9 78 11 l27 6 0 119 0 119 -170 0 -170 0 0 -33z"/>
<path d="M1590 1441 l0 -119 28 -6 c15 -2 49 -8 77 -11 27 -4 77 -17 112 -29
l62 -23 15 37 c20 50 46 180 46 230 l0 40 -170 0 -170 0 0 -119z"/>
<path d="M1955 1513 c-11 -91 -26 -163 -45 -217 l-18 -54 22 -10 c12 -5 53
-33 91 -62 l69 -53 34 39 c71 82 141 267 142 372 l0 32 -144 0 -145 0 -6 -47z"/>
<path d="M1455 1284 c-59 -13 -113 -29 -138 -41 l-28 -14 32 -57 c59 -105 156
-215 227 -256 9 -6 12 34 12 183 l0 191 -42 -1 c-24 -1 -52 -3 -63 -5z"/>
<path d="M1590 1101 l0 -192 23 12 c44 24 157 149 201 226 25 42 46 80 46 84
0 13 -137 51 -202 56 l-68 6 0 -192z"/>
<path d="M1215 1190 c-27 -16 -66 -43 -85 -60 l-35 -30 50 -46 c64 -58 189
-118 287 -138 105 -22 107 -21 54 20 -60 46 -145 149 -186 225 -17 32 -32 59
-33 59 -1 0 -24 -13 -52 -30z"/>
<path d="M1859 1178 c-37 -74 -106 -164 -171 -223 l-63 -57 40 7 c144 24 262
76 343 152 l47 43 -30 26 c-39 33 -128 94 -137 94 -4 0 -17 -19 -29 -42z"/>
</g>
</svg>
